<svg xmlns="http://www.w3.org/2000/svg" width="1200" height="800" viewBox="0 0 1200 800" fill="none">
  <g opacity="0.35">
    <path d="M-20 520c80-40 160-40 240 0s160 40 240 0 160-40 240 0 160 40 240 0 160-40 240 0" stroke="white" stroke-width="1.5"/>
    <path d="M-20 560c80-40 160-40 240 0s160 40 240 0 160-40 240 0 160 40 240 0 160-40 240 0" stroke="white" stroke-width="1"/>
    <path d="M-20 480c80-40 160-40 240 0s160 40 240 0 160-40 240 0 160 40 240 0 160-40 240 0" stroke="white" stroke-width="1"/>
    <circle cx="920" cy="180" r="90" fill="white" opacity="0.08"/>
    <circle cx="980" cy="210" r="55" fill="white" opacity="0.1"/>
    <circle cx="860" cy="210" r="45" fill="white" opacity="0.08"/>
    <circle cx="200" cy="160" r="70" fill="white" opacity="0.06"/>
    <circle cx="250" cy="180" r="40" fill="white" opacity="0.08"/>
  </g>
</svg>
