<svg xmlns="http://www.w3.org/2000/svg" width="128" height="128" viewBox="0 0 128 128" fill="none">
  <circle cx="64" cy="64" r="62" fill="#7DFFB3"/>
  <circle cx="64" cy="64" r="52" fill="#0B1F1A"/>
  <!-- Solid cloud mark -->
  <path
    fill="#7DFFB3"
    d="M84.5 52.5c-.4-8.8-7.7-15.8-16.7-15.8-6.2 0-11.6 3.3-14.5 8.2-2.1-1.5-4.7-2.4-7.5-2.4-7.3 0-13.2 5.8-13.5 13-6.3.7-11.3 6-11.3 12.5 0 7 5.7 12.6 12.7 12.6h48.6c6.5 0 11.7-5.2 11.7-11.6 0-6.1-4.7-11.1-10.7-11.5z"
  />
  <!-- Soft highlight -->
  <path
    fill="#C8F5E0"
    opacity="0.45"
    d="M74 58c-.3-5.5-4.8-9.9-10.5-9.9-3.9 0-7.3 2-9.2 5.1-1.3-.9-2.9-1.5-4.7-1.5-4.6 0-8.3 3.6-8.5 8.1-4 .4-7.1 3.7-7.1 7.8 0 4.3 3.5 7.8 7.9 7.8H78c4 0 7.3-3.2 7.3-7.2 0-3.8-2.9-6.9-6.7-7.2z"
  />
  <!-- Vapor wisps -->
  <path d="M90 40c5-9 10-13 17-15" stroke="#9AF5C8" stroke-width="4" stroke-linecap="round"/>
  <path d="M96 48c4-7 8-10 14-11" stroke="#7DFFB3" stroke-width="3" stroke-linecap="round" opacity="0.9"/>
</svg>
